Normalized EMG Linear Envelopes
nRows=267
nColumns=4

endheader
time	 med_gas_r	  soleus_r	 tib_ant_r	
3.19355	  0.005987	  0.018717	  0.003493	
3.22681	  0.006038	  0.018500	  0.003453	
3.26008	  0.006073	  0.018331	  0.003425	
3.29335	  0.006085	  0.018265	  0.003427	
3.32661	  0.006097	  0.018350	  0.003447	
3.35988	  0.006164	  0.018673	  0.003454	
3.39315	  0.006312	  0.019292	  0.003470	
3.42641	  0.006536	  0.020157	  0.003512	
3.45968	  0.006813	  0.021174	  0.003552	
3.49294	  0.007126	  0.022290	  0.003538	
3.52621	  0.007447	  0.023426	  0.003474	
3.55948	  0.007730	  0.024418	  0.003410	
3.59274	  0.007961	  0.025094	  0.003370	
3.62601	  0.008137	  0.025335	  0.003349	
3.65927	  0.008226	  0.024970	  0.003312	
3.69254	  0.008213	  0.024049	  0.003261	
3.72581	  0.008127	  0.022852	  0.003236	
3.75907	  0.007989	  0.021601	  0.003250	
3.79234	  0.007843	  0.020507	  0.003286	
3.8256	  0.007727	  0.019719	  0.003310	
3.85887	  0.007652	  0.019305	  0.003329	
3.89214	  0.007602	  0.019298	  0.003384	
3.9254	  0.007553	  0.019702	  0.003480	
3.95867	  0.007485	  0.020468	  0.003582	
3.99194	  0.007407	  0.021483	  0.003635	
4.0252	  0.007307	  0.022672	  0.003657	
4.05847	  0.007195	  0.023900	  0.003690	
4.09173	  0.007085	  0.024969	  0.003731	
4.125	  0.006973	  0.025653	  0.003739	
4.15827	  0.006850	  0.025791	  0.003723	
4.19153	  0.006720	  0.025476	  0.003718	
4.2248	  0.006617	  0.024845	  0.003721	
4.25806	  0.006570	  0.023970	  0.003694	
4.29133	  0.006576	  0.022948	  0.003641	
4.3246	  0.006606	  0.021923	  0.003605	
4.35786	  0.006662	  0.021020	  0.003615	
4.39113	  0.006759	  0.020250	  0.003658	
4.4244	  0.006861	  0.019653	  0.003710	
4.45766	  0.006903	  0.019300	  0.003801	
4.49093	  0.006844	  0.019243	  0.003956	
4.52419	  0.006719	  0.019423	  0.004151	
4.55746	  0.006580	  0.019751	  0.004338	
4.59073	  0.006432	  0.020174	  0.004506	
4.62399	  0.006269	  0.020652	  0.004637	
4.65726	  0.006123	  0.021162	  0.004669	
4.69052	  0.006013	  0.021678	  0.004518	
4.72379	  0.005933	  0.022145	  0.004102	
4.75706	  0.005869	  0.022514	  0.003317	
4.79032	  0.005797	  0.022790	  0.002044	
4.82359	  0.005733	  0.022979	  0.000199	
4.85685	  0.005707	  0.023067	 -0.002225	
4.89012	  0.005717	  0.022992	 -0.005159	
4.92339	  0.005731	  0.022596	 -0.008376	
4.95665	  0.005709	  0.021787	 -0.011328	
4.98992	  0.005680	  0.020676	 -0.013077	
5.02319	  0.005748	  0.019620	 -0.012274	
5.05645	  0.006028	  0.019137	 -0.007076	
5.08972	  0.006618	  0.019940	  0.004873	
5.12298	  0.007666	  0.022822	  0.026210	
5.15625	  0.009377	  0.028502	  0.059452	
5.18952	  0.011951	  0.037706	  0.106413	
5.22278	  0.015499	  0.050998	  0.167338	
5.25605	  0.019995	  0.068361	  0.239757	
5.28931	  0.025254	  0.089052	  0.318237	
5.32258	  0.030949	  0.111978	  0.399265	
5.35585	  0.036637	  0.136081	  0.480452	
5.38911	  0.042052	  0.160654	  0.557667	
5.42238	  0.047156	  0.184932	  0.628058	
5.45565	  0.051734	  0.208042	  0.689296	
5.48891	  0.055502	  0.229246	  0.739456	
5.52218	  0.058236	  0.247835	  0.773999	
5.55544	  0.059775	  0.262700	  0.789909	
5.58871	  0.060138	  0.274236	  0.793993	
5.62198	  0.059548	  0.283577	  0.794644	
5.65524	  0.058400	  0.292288	  0.794517	
5.68851	  0.057117	  0.302942	  0.796416	
5.72177	  0.055978	  0.316875	  0.803253	
5.75504	  0.055059	  0.333020	  0.816671	
5.78831	  0.054393	  0.350572	  0.835841	
5.82157	  0.054129	  0.368126	  0.859443	
5.85484	  0.054392	  0.380247	  0.883841	
5.8881	  0.055159	  0.384228	  0.903587	
5.92137	  0.056211	  0.380423	  0.914333	
5.95464	  0.057290	  0.369281	  0.919289	
5.9879	  0.058232	  0.354246	  0.922604	
6.02117	  0.058805	  0.339425	  0.924077	
6.05444	  0.058906	  0.328764	  0.923618	
6.0877	  0.058517	  0.325301	  0.922710	
6.12097	  0.057956	  0.329981	  0.923416	
6.15423	  0.057504	  0.341148	  0.925450	
6.1875	  0.057236	  0.356070	  0.926290	
6.22077	  0.056979	  0.373020	  0.920129	
6.25403	  0.056468	  0.388742	  0.907529	
6.2873	  0.055457	  0.397506	  0.891097	
6.32056	  0.054212	  0.396153	  0.870432	
6.35383	  0.053027	  0.385880	  0.849529	
6.3871	  0.052142	  0.370370	  0.833379	
6.42036	  0.051599	  0.352290	  0.822562	
6.45363	  0.051292	  0.335414	  0.815900	
6.4869	  0.051266	  0.323318	  0.813878	
6.52016	  0.051610	  0.317044	  0.816064	
6.55343	  0.052282	  0.316076	  0.821141	
6.58669	  0.053187	  0.319211	  0.828083	
6.61996	  0.054099	  0.324137	  0.833661	
6.65323	  0.054791	  0.327847	  0.837483	
6.68649	  0.055331	  0.327899	  0.840302	
6.71976	  0.055848	  0.322373	  0.839158	
6.75302	  0.056268	  0.311131	  0.830781	
6.78629	  0.056548	  0.298752	  0.815775	
6.81956	  0.056634	  0.290010	  0.799875	
6.85282	  0.056669	  0.287920	  0.786633	
6.88609	  0.056698	  0.293845	  0.775383	
6.91935	  0.056744	  0.307669	  0.764116	
6.95262	  0.056787	  0.328468	  0.751556	
6.98589	  0.056869	  0.352660	  0.738912	
7.01915	  0.057139	  0.375058	  0.729283	
7.05242	  0.057574	  0.391315	  0.726656	
7.08569	  0.058098	  0.400454	  0.732589	
7.11895	  0.058670	  0.403511	  0.747010	
7.15222	  0.059107	  0.401405	  0.769630	
7.18548	  0.059080	  0.394701	  0.800510	
7.21875	  0.058615	  0.387924	  0.835531	
7.25202	  0.057908	  0.386303	  0.866565	
7.28528	  0.057106	  0.390171	  0.887974	
7.31855	  0.056169	  0.397114	  0.899023	
7.35181	  0.055102	  0.403850	  0.901099	
7.38508	  0.053888	  0.406365	  0.893956	
7.41835	  0.052584	  0.404697	  0.881299	
7.45161	  0.051343	  0.400956	  0.869419	
7.48488	  0.050218	  0.395986	  0.857128	
7.51815	  0.049382	  0.391609	  0.839097	
7.55141	  0.049095	  0.387975	  0.814913	
7.58468	  0.049422	  0.384051	  0.790342	
7.61794	  0.050253	  0.379191	  0.767048	
7.65121	  0.051433	  0.373283	  0.745810	
7.68448	  0.052625	  0.366233	  0.726999	
7.71774	  0.053517	  0.359811	  0.710642	
7.75101	  0.054018	  0.355849	  0.696698	
7.78427	  0.054363	  0.358806	  0.686367	
7.81754	  0.054762	  0.373231	  0.679953	
7.85081	  0.055408	  0.402261	  0.676577	
7.88407	  0.056468	  0.444968	  0.677594	
7.91734	  0.057682	  0.494096	  0.682248	
7.9506	  0.058652	  0.538467	  0.688529	
7.98387	  0.059260	  0.570609	  0.695423	
8.01714	  0.059453	  0.586291	  0.702539	
8.0504	  0.059317	  0.583818	  0.710727	
8.08367	  0.059094	  0.564247	  0.719283	
8.11694	  0.058995	  0.531504	  0.725943	
8.1502	  0.058851	  0.491851	  0.729693	
8.18347	  0.058606	  0.454124	  0.729758	
8.21673	  0.058246	  0.425874	  0.725243	
8.25	  0.057811	  0.413718	  0.715654	
8.28327	  0.057424	  0.421508	  0.703193	
8.31653	  0.057140	  0.446438	  0.690537	
8.3498	  0.056813	  0.480865	  0.682778	
8.38306	  0.056370	  0.515057	  0.684546	
8.41633	  0.055895	  0.538763	  0.694636	
8.4496	  0.055486	  0.547280	  0.709366	
8.48286	  0.055133	  0.541089	  0.726287	
8.51613	  0.054789	  0.521411	  0.743683	
8.5494	  0.054445	  0.490273	  0.759485	
8.58266	  0.054010	  0.453700	  0.772253	
8.61593	  0.053679	  0.420824	  0.780510	
8.64919	  0.053801	  0.397726	  0.785185	
8.68246	  0.054440	  0.387191	  0.788737	
8.71573	  0.055343	  0.388776	  0.792663	
8.74899	  0.056037	  0.400109	  0.797652	
8.78226	  0.056161	  0.413879	  0.798724	
8.81552	  0.055700	  0.420080	  0.792846	
8.84879	  0.054659	  0.411842	  0.780867	
8.88206	  0.053182	  0.390338	  0.765288	
8.91532	  0.051434	  0.362512	  0.749077	
8.94859	  0.049658	  0.337175	  0.735573	
8.98185	  0.047999	  0.319532	  0.725473	
9.01512	  0.046561	  0.311829	  0.717206	
9.04839	  0.045651	  0.313578	  0.707554	
9.08165	  0.045463	  0.322074	  0.694554	
9.11492	  0.045896	  0.334403	  0.681412	
9.14819	  0.046652	  0.349498	  0.671198	
9.18145	  0.047460	  0.369471	  0.666196	
9.21472	  0.048238	  0.396355	  0.666614	
9.24798	  0.048937	  0.427663	  0.672045	
9.28125	  0.049469	  0.457526	  0.680765	
9.31452	  0.049653	  0.479887	  0.689208	
9.34778	  0.049421	  0.489913	  0.694204	
9.38105	  0.048733	  0.486278	  0.694932	
9.41431	  0.047991	  0.471463	  0.694038	
9.44758	  0.047616	  0.449599	  0.693187	
9.48085	  0.047639	  0.425188	  0.692825	
9.51411	  0.048014	  0.403568	  0.694420	
9.54738	  0.048535	  0.387442	  0.700312	
9.58065	  0.049003	  0.379465	  0.708386	
9.61391	  0.049347	  0.380828	  0.712456	
9.64718	  0.049591	  0.391298	  0.709138	
9.68044	  0.050120	  0.412526	  0.698314	
9.71371	  0.051172	  0.446639	  0.681011	
9.74698	  0.052926	  0.491527	  0.659890	
9.78024	  0.055938	  0.544429	  0.641394	
9.81351	  0.060691	  0.603121	  0.634288	
9.84677	  0.067194	  0.664214	  0.643965	
9.88004	  0.075235	  0.723640	  0.672765	
9.91331	  0.084251	  0.779885	  0.717493	
9.94657	  0.093738	  0.830909	  0.769558	
9.97984	  0.103408	  0.875252	  0.816480	
10.0131	  0.112455	  0.913124	  0.848465	
10.0464	  0.119796	  0.944788	  0.866730	
10.0796	  0.125275	  0.969454	  0.874758	
10.1129	  0.129232	  0.986271	  0.877406	
10.1462	  0.132032	  0.995706	  0.879197	
10.1794	  0.133790	  0.999785	  0.881854	
10.2127	  0.134797	  0.998416	  0.884772	
10.246	  0.134985	  0.991022	  0.885047	
10.2792	  0.134148	  0.979658	  0.881463	
10.3125	  0.132704	  0.968728	  0.875156	
10.3458	  0.131197	  0.962586	  0.869594	
10.379	  0.129731	  0.962607	  0.866241	
10.4123	  0.128954	  0.964117	  0.867010	
10.4456	  0.129111	  0.963021	  0.872926	
10.4788	  0.130213	  0.958682	  0.883809	
10.5121	  0.131932	  0.952263	  0.895786	
10.5454	  0.133247	  0.945319	  0.903989	
10.5786	  0.133320	  0.937317	  0.906953	
10.6119	  0.131420	  0.928031	  0.899181	
10.6452	  0.126707	  0.917667	  0.875891	
10.6784	  0.119012	  0.903087	  0.839844	
10.7117	  0.108445	  0.878437	  0.792444	
10.745	  0.095631	  0.834188	  0.733851	
10.7782	  0.081808	  0.765007	  0.666907	
10.8115	  0.068068	  0.673156	  0.597268	
10.8448	  0.055508	  0.566891	  0.532637	
10.878	  0.044897	  0.458426	  0.477925	
10.9113	  0.036514	  0.358178	  0.434276	
10.9446	  0.030333	  0.274633	  0.401068	
10.9778	  0.026053	  0.211127	  0.376043	
11.0111	  0.023142	  0.166582	  0.356784	
11.0444	  0.021141	  0.137543	  0.340157	
11.0776	  0.019679	  0.118867	  0.322115	
11.1109	  0.018394	  0.105774	  0.299488	
11.1442	  0.017077	  0.094743	  0.271145	
11.1774	  0.015719	  0.084518	  0.238709	
11.2107	  0.014381	  0.074701	  0.204470	
11.244	  0.013201	  0.065961	  0.171669	
11.2772	  0.012232	  0.058673	  0.141478	
11.3105	  0.011496	  0.052945	  0.114520	
11.3437	  0.011005	  0.048722	  0.091311	
11.377	  0.010736	  0.045693	  0.072223	
11.4103	  0.010620	  0.043120	  0.056660	
11.4435	  0.010604	  0.040442	  0.044145	
11.4768	  0.010632	  0.037872	  0.034540	
11.5101	  0.010635	  0.035620	  0.027427	
11.5433	  0.010553	  0.033576	  0.021951	
11.5766	  0.010395	  0.031735	  0.017568	
11.6099	  0.010182	  0.030060	  0.014188	
11.6431	  0.009867	  0.028398	  0.011634	
11.6764	  0.009472	  0.026771	  0.009619	
11.7097	  0.009073	  0.025281	  0.007888	
11.7429	  0.008727	  0.023928	  0.006429	
11.7762	  0.008437	  0.022759	  0.005316	
11.8095	  0.008175	  0.021863	  0.004537	
11.8427	  0.007922	  0.021317	  0.004009	
11.876	  0.007690	  0.021134	  0.003624	
11.9093	  0.007490	  0.021245	  0.003354	
11.9425	  0.007322	  0.021561	  0.003199	
11.9758	  0.007146	  0.021926	  0.003134	
12.0091	  0.006937	  0.022106	  0.003111	
12.0423	  0.006709	  0.021863	  0.003065	
